<svg xmlns="http://www.w3.org/2000/svg" viewBox="0 0 137.2 61.81"><defs><style>.cls-1{fill:#cd1433;}.cls-2{fill:#fff;}</style></defs><g id="Layer_2" data-name="Layer 2"><g id="Layer_1-2" data-name="Layer 1"><path class="cls-1" d="M130,61.81H7.16A7.16,7.16,0,0,1,0,54.65V7.16A7.16,7.16,0,0,1,7.16,0H130a7.17,7.17,0,0,1,7.16,7.16v47.5A7.16,7.16,0,0,1,130,61.81"/><path class="cls-2" d="M129,56H8.2a2.38,2.38,0,0,1-2.39-2.38V28.66A2.39,2.39,0,0,1,8.2,26.28H129a2.39,2.39,0,0,1,2.39,2.39V53.61A2.39,2.39,0,0,1,129,56"/><path class="cls-2" d="M14,7C17.09,7,19,8.13,19,10.67a3,3,0,0,1-1.93,2.83,3.2,3.2,0,0,1,2.22,3c0,2.56-1.82,3.82-5,3.82H8.54V7ZM11.19,9.32v3.11h2.73c1.32,0,2.35-.27,2.35-1.57s-1-1.54-2.36-1.54Zm0,5.45V18h3c1.47,0,2.39-.35,2.39-1.62s-.92-1.59-2.39-1.59Z"/><path class="cls-2" d="M31.32,20.31h-10V7h9.88V9.42H24v2.95h6.89v2.44H24v3.06h7.3Z"/><path class="cls-2" d="M40,15.05v5.26H37.36V15L32.23,7h3.12l3.35,5.65L42.06,7h3Z"/><path class="cls-2" d="M57.13,20.31H54.3l-1.17-3.1H47.45l-1.16,3.1H43.52L48.71,7h3.23Zm-8.77-5.55h3.86L50.3,9.61Z"/><path class="cls-2" d="M68.34,9.06l-6.93,8.8h6.93v2.45H57.88V18.23l6.92-8.8H57.9V7H68.34Z"/><path class="cls-2" d="M89.44,20.31H86.79V10.25L83.49,19H80.68l-3.29-8.7v10H74.73V7h3.9l3.46,9,3.46-9h3.89Z"/><path class="cls-2" d="M104.4,20.31h-2.84l-1.16-3.1H94.72l-1.17,3.1H90.78L96,7h3.24Zm-8.77-5.55h3.86L97.56,9.61Z"/><path class="cls-2" d="M114.8,10.34A7.11,7.11,0,0,0,111,9.21c-1.49,0-2.55.59-2.55,1.6s1.15,1.27,2.75,1.54l.76.12c2.38.4,4.24,1.41,4.24,3.74,0,2.94-2.59,4.34-5.45,4.34a9.29,9.29,0,0,1-5.62-1.74l1.38-2.15a7,7,0,0,0,4.25,1.44c1.47,0,2.61-.58,2.61-1.61s-1-1.26-2.82-1.56l-.85-.13c-2.35-.37-4.07-1.41-4.07-3.82,0-2.78,2.48-4.23,5.32-4.23a9.39,9.39,0,0,1,5.09,1.42Z"/><path class="cls-2" d="M130.26,20.31h-2.83l-1.17-3.1h-5.68l-1.16,3.1h-2.77L121.84,7h3.23Zm-8.77-5.55h3.86l-1.92-5.15Z"/><path d="M32.86,51H27.57L26,46.66H17.74L16.17,51H11l8-20.78h5.92ZM19.35,42.17h5l-2.52-7Z"/><path d="M50.34,51H34.93V30.24h5V46.42H50.34Z"/><path d="M72.88,40.63c0,6.21-4.54,10.78-10.95,10.78S51,46.84,51,40.63s4.54-10.78,11-10.78S72.88,34.43,72.88,40.63Zm-16.75,0a5.8,5.8,0,1,0,11.59,0,5.8,5.8,0,1,0-11.59,0Z"/><path d="M90.67,51H85.85V36.55l-4.64,1.77V33.58l9.46-3.67Z"/><path d="M107.65,34.66H99.52l-.09,3.27h2c4.81,0,7.42,2.57,7.42,6.27,0,4.45-3.37,7.21-7.9,7.21a10.53,10.53,0,0,1-7.51-2.89L95.88,45A8.06,8.06,0,0,0,101,47c1.93,0,2.94-1,2.94-2.5,0-1.3-.9-2.34-3.66-2.34H95.11l.26-11.94h12.28Z"/><path d="M125.46,35.87a5,5,0,0,1-3,4.69,5,5,0,0,1,3.44,4.7c0,4.16-3.87,6.14-8,6.14a9.31,9.31,0,0,1-7.38-3l2.74-3.13a6.07,6.07,0,0,0,4.4,1.87c1.78,0,3.22-.71,3.22-2.23s-1.63-2.21-3.61-2.21h-2.34V38.42h2.37c1.8,0,3.19-.74,3.19-2.15s-1.23-2.1-2.92-2.1a5.36,5.36,0,0,0-4.2,2L110.62,33a8.94,8.94,0,0,1,7.17-3.15C122.3,29.87,125.46,32.24,125.46,35.87Z"/></g></g></svg>