<?xml version="1.0" encoding="utf-8"?>
<!-- Generator: Adobe Illustrator 19.2.0, SVG Export Plug-In . SVG Version: 6.00 Build 0)  -->
<svg version="1.1" id="Layer_1" xmlns="http://www.w3.org/2000/svg" xmlns:xlink="http://www.w3.org/1999/xlink" x="0px" y="0px"
	 viewBox="0 0 64 64" style="enable-background:new 0 0 64 64;" xml:space="preserve">
<style type="text/css">
	.st0{fill:#7C00FF;}
</style>
<path class="st0" d="M26.9,35c0,1.8-1.5,3.2-3.2,3.2c-1.8,0-3.2-1.5-3.2-3.2s1.5-3.2,3.2-3.2C25.5,31.8,26.9,33.3,26.9,35z
	 M40.2,31.8c-1.8,0-3.2,1.5-3.2,3.2c0,1.8,1.5,3.2,3.2,3.2s3.2-1.5,3.2-3.2C43.6,33.3,42.1,31.8,40.2,31.8z M64,33.3v6.3
	c0,3.1-2.6,5.7-5.7,5.7h-4c-4,11.3-14.6,18.3-22.2,18.3S14,56.7,9.9,45.2h-4c-3.1,0-5.7-2.6-5.7-5.7v-6.3c0-2.1,1.1-4,2.9-5
	c0-8.9,2.6-15.9,7.8-20.6c5-4.6,12.1-7,21.4-7s16,2.3,21.1,7.1c5,4.9,7.6,11.7,7.8,20.6C62.9,29.2,64,31.2,64,33.3z M52,35.2
	c0-1.5,0-2.9-0.2-4.2c-2.6-2.3-7.1-4-13-4.7c0.8,0.8,1.5,1.9,1.8,3.4c-3.6-2.8-10.5-2.1-15.7-8.4c-0.3-0.3-0.5-0.6-0.8-1l0,0l0,0
	c-1-1.3-1.3-1.9-1.3-1.1C22.7,26.3,17.7,32,12,32.8c0,0.8,0,1.6,0,2.4c0,3.1,0.5,5.8,1.3,8.3c3.2,3.9,8.4,4.9,13.1,5.2
	c0.8-1.3,2.8-2.3,5-2.3c3.1,0,5.5,1.8,5.5,3.9c0,2.1-2.4,3.9-5.5,3.9c-2.3,0-4.4-1-5.2-2.4c-3.2-0.2-6.8-0.8-10-2.3
	c4.5,6.6,11.3,10,15.7,10C38.7,59.5,52,50.9,52,35.2z M57.5,27.6C57.2,12.1,48.3,4,31.9,4S6.7,12.2,6.4,27.6h2.3
	c0.8-5.2,2.4-9.6,5-12.8c4-5.3,10.4-7.9,18.5-7.9s14.2,2.6,18.5,7.9c2.6,3.2,4.2,7.6,5,12.8H57.5L57.5,27.6z"/>
</svg>
