<?xml version="1.0" encoding="utf-8"?>
<!-- Generator: Adobe Illustrator 19.2.0, SVG Export Plug-In . SVG Version: 6.00 Build 0)  -->
<svg version="1.1" id="Layer_1" xmlns="http://www.w3.org/2000/svg" xmlns:xlink="http://www.w3.org/1999/xlink" x="0px" y="0px"
	 viewBox="0 0 64 64" style="enable-background:new 0 0 64 64;" xml:space="preserve">
<style type="text/css">
	.st0{fill:#CC0000;}
</style>
<g>
	<polygon id="polygon3_1_" class="st0" points="27.2,44.1 27.2,34.9 48.3,34.9 48.3,25 27.2,25 27.2,18.9 49.8,18.9 49.8,9 27.2,9 
		27,9 13,9 13,54.8 27,54.8 27.2,54.8 51.4,54.8 51.4,44.1 	"/>
	<path id="path5_3_" class="st0" d="M59.8,4.3v55.2H4.4V4.3H59.8 M59.8,0H4.4C2,0,0.1,2,0.1,4.3v55.2C0.1,62,2,64,4.4,64h55.2
		c2.3,0,4.3-2,4.3-4.3V4.3C64.1,2,62.3,0,59.8,0L59.8,0z"/>
</g>
</svg>
