<?xml version="1.0" encoding="utf-8"?>
<!-- Generator: Adobe Illustrator 22.1.0, SVG Export Plug-In . SVG Version: 6.00 Build 0)  -->
<svg version="1.1" id="Layer_2" xmlns="http://www.w3.org/2000/svg" xmlns:xlink="http://www.w3.org/1999/xlink" x="0px" y="0px"
	 viewBox="0 0 64 64" style="enable-background:new 0 0 64 64;" xml:space="preserve">
<style type="text/css">
	.st0{fill:#354C35;}
</style>
<g>
	<polygon class="st0" points="61.6,24.9 32,5 2.4,24.9 0.2,21.6 32,0.2 63.8,21.6 	"/>
</g>
<g>
	<polygon class="st0" points="55.1,22.3 55.1,60 8.9,60 8.9,22.3 4.9,25 4.9,64 59.1,64 59.1,25 	"/>
</g>
<g>
	<g>
		<path class="st0" d="M26.2,32c-0.1,0.1-0.1,0.3-0.2,0.4c-2.5,5.5-5.1,10.9-7.8,16.3C18.2,48.8,18.2,49,18,49c0,0.1,0,0.1,0,0.1
			c0.1,0.1,0.1,0.2,0.2,0.3c1.3,2.4,2.7,5,4,7.6c0.1,0.1,0.1,0.2,0.2,0.3c0.1-0.1,0.1-0.1,0.1-0.1c2.9-5.6,5.6-11.2,8.3-16.8
			c0-0.1,0-0.3-0.1-0.5c-1.2-2.4-2.7-5.1-4.3-7.6C26.4,32.2,26.4,32.2,26.2,32L26.2,32z"/>
	</g>
	<g>
		<path class="st0" d="M31.5,11.5c-0.3,0-0.7,0-1.1,0c-0.6,0.1-1.3,0.3-1.7,0.9c-0.3,0.5-0.7,1.1-0.9,1.6c-0.7,2.1-1.3,4.3-1.8,6.5
			c-0.1,0.2-0.1,0.3-0.1,0.6c0.3-0.2,0.5-0.4,0.6-0.5c1.3-1.2,2.6-1.9,4.2-2.1c0.9-0.1,1.8-0.2,2.7-0.2c1.2,0,2.3,0.1,3.4,0.3
			c0.7,0.1,1.6,0.3,2.3,0.5c-0.1-0.2-0.1-0.3-0.2-0.4c-0.7-1.5-1.4-2.9-2.1-4.2c-0.1-0.3-0.3-0.6-0.4-0.9c-0.6-1.2-1.6-1.8-3-1.9
			C32.9,11.6,32.1,11.6,31.5,11.5L31.5,11.5z"/>
	</g>
	<g>
		<path class="st0" d="M30.7,19.6C30.6,19.6,30.6,19.6,30.7,19.6c-2.4,0.7-4.2,1.9-5.2,4.3c-0.5,1.4-0.7,2.7-0.1,4.2
			c0.3,0.6,0.6,1.3,1.1,1.9c5.1,9,10.4,18.1,15.6,27.2c0.1,0.1,0.1,0.1,0.2,0.3c0.1-0.1,0.1-0.2,0.1-0.3c1.2-2.9,2.3-5.6,3.5-8.5
			c-0.1-0.4-0.1-0.6-0.3-0.8c-3.1-5.4-6.2-10.7-9.2-16.1c-1.7-3-3.3-6-4.9-8.9C31.1,21.8,30.5,20.9,30.7,19.6L30.7,19.6z"/>
	</g>
	<g>
		<path class="st0" d="M32.4,19.5c-0.1,0.5-0.1,0.9-0.2,1.5c-0.1,0.1-0.1,0.3,0,0.3c0.2,0.5,0.4,1.1,0.6,1.5
			c0.7,1.4,1.5,2.7,2.2,4.2c0.5,0.9,1.1,1.9,1.6,2.9c0.1-0.1,0.1-0.2,0.2-0.3c1.1-2,2-4.2,3.1-6.2c0.1-0.3,0.3-0.5,0.3-0.7
			c0.2-0.7,0-1.4-0.6-1.7c-0.4-0.2-0.9-0.4-1.3-0.5c-1.3-0.4-2.6-0.6-3.6-0.7C33.9,19.6,32.9,19.6,32.4,19.5L32.4,19.5z"/>
	</g>
</g>
</svg>
