<?xml version="1.0" encoding="utf-8"?>
<!-- Generator: Adobe Illustrator 19.2.0, SVG Export Plug-In . SVG Version: 6.00 Build 0)  -->
<svg version="1.1" id="Layer_1" xmlns="http://www.w3.org/2000/svg" xmlns:xlink="http://www.w3.org/1999/xlink" x="0px" y="0px"
	 viewBox="0 0 64 64" style="enable-background:new 0 0 64 64;" xml:space="preserve">
<style type="text/css">
	.st0{fill:#AB5600;}
</style>
<g id="g3_2_">
	<path id="path5_4_" class="st0" d="M0.4,58.5C0.6,58,0.6,57.6,0.8,57c0.6-1.5,1.7-2.4,3-3.2c1.5-0.9,3-1.7,4.5-2.8
		c1.5-0.9,3-2.1,4.3-3.4c1.5-1.5,3-3,4.7-4.7c0.6-0.6,0.9-1.1,1.5-1.7c0.4-0.4,0.4-0.6,0.2-1.1c-0.6-0.8-0.8-1.7-0.8-2.6
		c0-1.3,0.9-2.1,2.3-1.9c0.8,0.2,1.3,0.4,2.1,0.6c0.4,0.2,0.6,0.2,0.8-0.2c4.1-4.1,8.1-8.1,12-12c0.4-0.4,0.4-0.6,0-0.8
		c-1.3-1.3-2.6-2.6-4-4c-0.4-0.4-0.6-0.4-0.8-0.2c-1.3,0.4-2.1-0.4-2.8-1.3c-0.6-0.8-0.4-1.7,0.4-2.6c3-3,6.2-6.2,9.4-9.4
		c0.9-0.9,2.1-0.9,3-0.2C41.6,6.2,42,7,41.6,8.3C41.8,8.7,41.8,9,42,9.2c1.3,1.5,2.8,2.8,4.3,4.3c2.8,2.8,5.8,5.8,8.5,8.5
		c0.4,0.4,0.6,0.6,0.9,0.4c0.9-0.4,2.3,0.2,2.8,1.3c0.6,0.8,0.4,1.7-0.4,2.4c-3.2,3.2-6.4,6.4-9.6,9.6c-0.8,0.8-2.3,0.8-3,0
		c-0.8-0.8-1.3-1.5-0.8-2.8c0.2-0.2,0-0.4-0.2-0.6c-1.3-1.3-2.6-2.6-4.1-4.1c-0.4-0.4-0.6-0.2-0.8,0.2c-1.3,1.3-2.6,2.6-4,4
		c-2.6,2.6-5.5,5.5-8.1,8.1c-0.4,0.4-0.4,0.6-0.2,0.9c0.4,0.8,0.6,1.7,0.6,2.6c-0.2,0.9-0.8,1.5-1.7,1.5c-1.1,0.2-2.1-0.4-3-0.8
		c-0.4-0.2-0.6-0.2-0.8,0.2c-1.9,1.7-3.8,3.6-5.6,5.3c-2.3,2.3-4.1,4.9-5.6,7.9c-0.9,1.7-2.1,3.2-3.4,4.5c-0.8,0.8-1.7,0.9-2.6,1.1
		c-0.2,0-0.6,0-0.8,0c-0.2,0-0.2-0.2-0.2-0.2c-2.1-0.4-3.2-1.3-4-3.2C0.2,60,0.2,59.7,0,59.3C0.4,58.9,0.4,58.7,0.4,58.5z"/>
	<path id="path7_2_" class="st0" d="M33.7,63.6c-0.4-0.2-0.6-0.2-0.9-0.2c-1.3-0.4-2.1-1.3-1.9-2.6c0-0.9,0.9-2.1,2.1-2.3
		c0.4-0.2,0.8-0.2,1.1-0.2c8.7,0,17.5,0,26.2,0c2.1,0,2.8,0.6,3.4,2.4c0,0.2,0,0.2,0,0.4c-0.2,0.8-0.6,1.3-1.1,1.7s-1.1,0.6-1.7,0.8
		C51.8,63.6,42.7,63.6,33.7,63.6z"/>
	<path id="path9_2_" class="st0" d="M63.8,29.4c-0.4,0.6-0.8,1.1-1.1,1.7c-3,3-5.8,6-8.8,8.8c-0.8,0.8-1.7,1.1-2.4,0.6
		c-0.9-0.6-2.1-1.5-1.7-2.6c0.2-0.6,0.6-1.1,0.9-1.5c2.6-2.8,5.5-5.5,8.1-8.1c0.2-0.2,0.6-0.6,0.8-0.8c0.6-0.8,1.5-1.1,2.4-0.9
		c0.9,0.4,1.5,0.9,1.9,1.9c0,0.2,0.2,0.2,0.2,0.4C63.8,29.2,63.8,29.2,63.8,29.4z"/>
	<path id="path11_2_" class="st0" d="M35,0.4c0.8,0.2,1.3,0.6,1.7,1.1c0.9,0.9,0.9,1.9,0,2.8c-3.2,3.2-6.4,6.4-9.6,9.4
		c-0.9,0.9-2.1,0.9-3,0c-0.4-0.4-0.8-0.9-0.9-1.5c-0.2-0.8,0.2-1.3,0.8-2.1c3.2-3,6.2-6.2,9.4-9.2c0.4-0.4,0.9-0.6,1.5-0.8
		C34.8,0.4,35,0.4,35,0.4z"/>
	<path id="path13_2_" class="st0" d="M47.2,57c-3.2,0-6.4,0-9.8,0c-0.8,0-1.5-0.4-2.3-0.6c-0.2-0.2-0.6-0.4-0.6-0.6s0.2-0.6,0.6-0.8
		c0.8-0.4,1.3-0.6,2.1-0.6c6.6,0,13.2,0,19.8,0c0.8,0,1.5,0.4,2.3,0.6s0.6,0.9-0.2,1.3c-0.8,0.4-1.5,0.6-2.3,0.6
		C53.6,57,50.4,57,47.2,57z"/>
</g>
</svg>
