<?xml version="1.0" encoding="utf-8"?>
<!-- Generator: Adobe Illustrator 19.2.0, SVG Export Plug-In . SVG Version: 6.00 Build 0)  -->
<svg version="1.1" id="Layer_1" xmlns="http://www.w3.org/2000/svg" xmlns:xlink="http://www.w3.org/1999/xlink" x="0px" y="0px"
	 viewBox="0 0 64 64" style="enable-background:new 0 0 64 64;" xml:space="preserve">
<style type="text/css">
	.st0{fill:#333333;}
</style>
<g>
	<path class="st0" d="M24.3,28.9c-0.1-0.1-0.1-0.1-0.3-0.4c-0.1,0.1-0.1,0.4-0.3,0.6c-3.5,7.7-7.1,15.2-10.8,22.7
		c-0.1,0.1-0.1,0.3-0.3,0.4c0,0.1,0,0.1,0,0.1c0.1,0.1,0.1,0.3,0.3,0.4c1.8,3.4,3.7,6.9,5.5,10.5c0.1,0.1,0.1,0.3,0.3,0.4
		c0.1-0.1,0.1-0.1,0.1-0.1c4-7.8,7.8-15.5,11.6-23.3c0-0.1,0-0.4-0.1-0.7C28.6,36.1,26.5,32.4,24.3,28.9z"/>
	<path class="st0" d="M30.2,9.9c2.9-0.4,5.8-0.3,8.6,0.1c1,0.1,2.2,0.4,3.2,0.7c-0.1-0.3-0.1-0.4-0.3-0.6c-1-2.1-1.9-4-2.9-5.9
		c-0.1-0.4-0.4-0.9-0.6-1.3C37.3,1.3,36,0.4,34,0.3c-0.7-0.1-1.8-0.1-2.7-0.3c-0.4,0-1,0-1.5,0c-0.9,0.1-1.8,0.4-2.4,1.3
		c-0.4,0.7-1,1.5-1.3,2.2c-1,2.9-1.8,6-2.5,9.1c-0.1,0.3-0.1,0.4-0.1,0.9c0.4-0.3,0.7-0.6,0.9-0.7C26.2,11.2,28,10.2,30.2,9.9z"/>
	<path class="st0" d="M51,50.7c-4.3-7.5-8.6-14.9-12.8-22.4c-2.4-4.1-4.6-8.3-6.8-12.4c-0.7-1.5-1.5-2.8-1.2-4.6c-0.1,0-0.1,0-0.1,0
		c-3.2,1-5.8,2.7-7.1,6c-0.7,1.9-1,3.8-0.1,5.8c0.4,0.9,0.9,1.8,1.5,2.7C31.5,38.3,38.9,51,46.1,63.6c0.1,0.1,0.1,0.1,0.3,0.4
		c0.1-0.1,0.1-0.3,0.1-0.4c1.6-4,3.2-7.8,4.9-11.8C51.3,51.3,51.3,51,51,50.7z"/>
	<path class="st0" d="M35.7,11.4c-1-0.1-2.4-0.1-3.2-0.3c-0.1,0.7-0.1,1.3-0.3,2.1c-0.1,0.1-0.1,0.4,0,0.4c0.3,0.7,0.6,1.5,0.9,2.1
		c1,1.9,2.1,3.8,3.1,5.8c0.7,1.3,1.5,2.7,2.2,4c0.1-0.1,0.1-0.3,0.3-0.4c1.5-2.8,2.8-5.8,4.3-8.6c0.1-0.4,0.4-0.7,0.4-1
		c0.3-1,0-1.9-0.9-2.4c-0.6-0.3-1.2-0.6-1.8-0.7C38.9,11.8,37.1,11.5,35.7,11.4z"/>
</g>
</svg>
