<?xml version="1.0" encoding="utf-8"?>
<!-- Generator: Adobe Illustrator 19.0.0, SVG Export Plug-In . SVG Version: 6.00 Build 0)  -->
<svg version="1.1" id="Layer_1" xmlns="http://www.w3.org/2000/svg" xmlns:xlink="http://www.w3.org/1999/xlink" x="0px" y="0px"
	 viewBox="0 0 32 32" style="enable-background:new 0 0 32 32;" xml:space="preserve">
<style type="text/css">
	.st0{fill:#DCC2AC;}
	.st1{fill:none;}
	.st2{fill:#865750;}
</style>
<path id="XMLID_9_" class="st0" d="M22.6,16.2c0,3.6-2.8,6.4-6.6,6.4c-3.6,0-6.6-2.8-6.6-6.4c0-0.9,0.2-2.3,0.5-2.3H6v9.4
	C6,24.6,7.4,26,8.6,26h14.7c1.3,0,2.5-1.4,2.5-2.6V14H22C22.4,14,22.6,15.4,22.6,16.2L22.6,16.2z"/>
<polygon id="XMLID_8_" points="24.6,6.8 21.1,6.8 21,10.8 25,10.8 25,7.3 25,6.8 "/>
<g id="XMLID_1_">
	<path id="XMLID_2_" class="st1" d="M28,8.6C28,6.1,25.9,4,23.3,4H8.6C6.1,4,4,6.1,4,8.6v4.9v0.3h8.4c0.1-0.1,0.2-0.3,0.2-0.4
		c0.7-1.1,2-1.8,3.4-1.8c1.4,0,2.6,0.7,3.4,1.8c0.1,0.1,0.1,0.2,0.2,0.4H28v-0.4V8.6z"/>
	<path id="XMLID_10_" class="st1" d="M20.2,16c0,2.3-1.9,4.2-4.2,4.2c-2.2,0-4.2-1.9-4.2-4.2c0-0.8,0.2-1.5,0.6-2.1H4v9.5
		c0,2.5,2.1,4.6,4.6,4.5h14.8c2.5,0,4.6-2,4.6-4.6v-9.4h-8.3C19.9,14.5,20.2,15.2,20.2,16z"/>
	<path id="XMLID_11_" class="st2" d="M19.4,13.5c-0.8-1.1-2-1.8-3.4-1.8c-1.3,0-2.7,0.7-3.4,1.8c-0.1,0.1-0.2,0.2-0.2,0.4h7.3
		C19.6,13.7,19.5,13.6,19.4,13.5z"/>
	<path id="XMLID_12_" class="st0" d="M16,20.2c2.3,0,4.2-1.9,4.2-4.2c0-0.7-0.2-1.5-0.5-2.1h-7.3c-0.4,0.6-0.6,1.3-0.6,2.1
		C11.8,18.3,13.7,20.2,16,20.2z"/>
	<path id="XMLID_13_" class="st2" d="M4,13.6V8.6C4,6.1,6.1,4,8.6,4h14.7C25.9,4,28,6.1,28,8.6v4.9v0.4h4V6c0-3.3-2.7-6-6-6H6
		C2.7,0,0,2.7,0,6v7.9h4V13.6z"/>
	<path id="XMLID_14_" class="st0" d="M28,13.9v9.4c0,2.5-2.1,4.6-4.6,4.6H8.6C6.1,28,4,25.9,4,23.4v-9.5H0V26c0,3.3,2.7,6,6,6h20
		c3.3,0,6-2.7,6-6V13.9H28z"/>
</g>
</svg>
