<?xml version="1.0" encoding="UTF-8" standalone="no"?>
<!-- Generator: Adobe Illustrator 19.0.0, SVG Export Plug-In . SVG Version: 6.00 Build 0)  -->

<svg
   xmlns:dc="http://purl.org/dc/elements/1.1/"
   xmlns:cc="http://creativecommons.org/ns#"
   xmlns:rdf="http://www.w3.org/1999/02/22-rdf-syntax-ns#"
   xmlns:svg="http://www.w3.org/2000/svg"
   xmlns="http://www.w3.org/2000/svg"
   xmlns:sodipodi="http://sodipodi.sourceforge.net/DTD/sodipodi-0.dtd"
   xmlns:inkscape="http://www.inkscape.org/namespaces/inkscape"
   version="1.1"
   id="Layer_1"
   x="0px"
   y="0px"
   viewBox="-463 265 32 32"
   style="enable-background:new -463 265 32 32;"
   xml:space="preserve"
   inkscape:version="0.91 r13725"
   sodipodi:docname="twitter.svg"><metadata
     id="metadata11"><rdf:RDF><cc:Work
         rdf:about=""><dc:format>image/svg+xml</dc:format><dc:type
           rdf:resource="http://purl.org/dc/dcmitype/StillImage" /></cc:Work></rdf:RDF></metadata><defs
     id="defs9" /><sodipodi:namedview
     pagecolor="#ffffff"
     bordercolor="#666666"
     borderopacity="1"
     objecttolerance="10"
     gridtolerance="10"
     guidetolerance="10"
     inkscape:pageopacity="0"
     inkscape:pageshadow="2"
     inkscape:window-width="1359"
     inkscape:window-height="878"
     id="namedview7"
     showgrid="false"
     inkscape:zoom="7.375"
     inkscape:cx="-0.61016949"
     inkscape:cy="11.79661"
     inkscape:window-x="0"
     inkscape:window-y="0"
     inkscape:window-maximized="0"
     inkscape:current-layer="Layer_1" /><style
     type="text/css"
     id="style3">
	.st0{fill:#CCCCCC;}
</style><path
     class="st0"
     d="M-437,265H-457c-3.3,0-6,2.7-6,6V291c0,3.3,2.7,6,6,6h20.1c3.3,0,6-2.7,6-6V271C-431,267.7-433.7,265-437,265z   M-439,277.4v0.5c0,5.2-3.9,11.2-11.2,11.2c-2.1,0-4.4-0.5-6.1-1.7c0.3,0,0.5,0,0.9,0c1.9,0,3.5-0.5,4.9-1.7c-1.7,0-3.2-1.2-3.6-2.8  c0.3,0,0.4,0,0.7,0s0.7,0,1.1-0.1c-1.7-0.4-3.2-1.9-3.2-3.9l0,0c0.5,0.4,1.2,0.7,1.9,0.7c-1.1-0.7-1.7-1.9-1.7-3.3  c0-0.7,0.1-1.5,0.5-2c1.9,2.3,4.8,3.9,8.1,4.1c0-0.3-0.1-0.5-0.1-0.9c0-2.1,1.7-3.9,3.9-3.9c1.2,0,2.1,0.4,2.9,1.3  c0.9-0.1,1.7-0.4,2.5-1.1c-0.3,0.9-0.9,1.7-1.7,2.1c0.7-0.1,1.6-0.3,2.3-0.5C-437.5,276.2-438.3,276.9-439,277.4z"
     id="path5"
     style="fill:#00aaf0;fill-opacity:1" /></svg>