<?xml version="1.0" encoding="UTF-8" standalone="no"?>
<svg
   width="161.2"
   height="41.900002"
   fill="none"
   version="1.1"
   id="svg866"
   sodipodi:docname="whatsapp-logo.svg"
   inkscape:version="1.1.2 (b8e25be8, 2022-02-05)"
   xmlns:inkscape="http://www.inkscape.org/namespaces/inkscape"
   xmlns:sodipodi="http://sodipodi.sourceforge.net/DTD/sodipodi-0.dtd"
   xmlns:xlink="http://www.w3.org/1999/xlink"
   xmlns="http://www.w3.org/2000/svg"
   xmlns:svg="http://www.w3.org/2000/svg">
  <sodipodi:namedview
     id="namedview868"
     pagecolor="#ffffff"
     bordercolor="#666666"
     borderopacity="1.0"
     inkscape:pageshadow="2"
     inkscape:pageopacity="0.0"
     inkscape:pagecheckerboard="false"
     showgrid="false"
     inkscape:zoom="3.1422058"
     inkscape:cx="134.30056"
     inkscape:cy="42.645202"
     inkscape:window-width="1920"
     inkscape:window-height="1027"
     inkscape:window-x="0"
     inkscape:window-y="385"
     inkscape:window-maximized="1"
     inkscape:current-layer="svg866" />
  <path
     fill="url(#pattern0_whatsapp_desktop_logo)"
     d="M 43.45,10.627 H 161.2 V 35.21 H 43.45 Z"
     id="path824"
     style="fill:url(#pattern1340)" />
  <path
     d="M 61.085,23.805 H 61.03 L 58.017,11.588 H 54.4 l -3.05,12.07 H 51.295 L 48.503,11.606 h -3.876 l 4.666,17.726 h 3.913 L 56.145,17.281 H 56.2 l 2.976,12.05 h 3.839 l 4.74,-17.725 H 63.95 l -2.866,12.2 z m 18.48,-6.21 c -0.349,-0.462 -0.826,-0.813 -1.414,-1.072 -0.607,-0.259 -1.378,-0.388 -2.297,-0.388 -0.66,0 -1.322,0.166 -2.02,0.517 -0.698,0.333 -1.25,0.887 -1.709,1.627 h -0.073 v -6.673 h -3.509 v 17.726 h 3.509 v -6.728 c 0,-1.313 0.22,-2.237 0.643,-2.81 0.422,-0.573 1.12,-0.85 2.076,-0.85 0.845,0 1.414,0.259 1.745,0.776 0.33,0.518 0.496,1.313 0.496,2.366 v 7.246 h 3.508 v -7.893 a 11.1,11.1 0 0 0 -0.202,-2.162 c -0.165,-0.666 -0.404,-1.22 -0.753,-1.682 z m 14.42,8.872 v -6.673 c 0,-0.776 -0.165,-1.404 -0.514,-1.867 -0.35,-0.48 -0.79,-0.831 -1.323,-1.109 a 6.192,6.192 0 0 0 -1.8,-0.536 13.97,13.97 0 0 0 -1.947,-0.129 c -0.698,0 -1.415,0.074 -2.113,0.203 -0.698,0.148 -1.322,0.37 -1.892,0.703 a 4.264,4.264 0 0 0 -1.377,1.312 c -0.368,0.555 -0.57,1.239 -0.625,2.052 h 3.509 c 0.073,-0.703 0.293,-1.183 0.698,-1.497 0.385,-0.296 0.937,-0.444 1.635,-0.444 0.312,0 0.606,0.018 0.881,0.055 0.276,0.037 0.515,0.13 0.717,0.24 0.202,0.13 0.367,0.296 0.496,0.518 0.128,0.222 0.183,0.518 0.183,0.906 0.019,0.37 -0.091,0.647 -0.312,0.832 a 2.45,2.45 0 0 1 -0.937,0.425 c -0.385,0.092 -0.845,0.166 -1.36,0.222 -0.513,0.055 -1.028,0.11 -1.56,0.203 -0.533,0.074 -1.048,0.203 -1.562,0.333 a 4.7,4.7 0 0 0 -1.378,0.628 C 83,23.121 82.67,23.51 82.412,23.972 c -0.257,0.48 -0.385,1.072 -0.385,1.793 0,0.665 0.11,1.238 0.33,1.718 0.22,0.481 0.533,0.87 0.919,1.183 0.386,0.315 0.863,0.555 1.378,0.703 a 6.265,6.265 0 0 0 1.708,0.221 c 0.79,0 1.561,-0.11 2.314,-0.35 0.754,-0.24 1.415,-0.63 1.966,-1.22 0.018,0.221 0.037,0.425 0.092,0.628 0.037,0.203 0.092,0.407 0.165,0.61 h 3.546 c -0.166,-0.259 -0.276,-0.666 -0.35,-1.183 a 10.87,10.87 0 0 1 -0.11,-1.608 z m -3.49,-2.107 c 0,0.203 -0.018,0.462 -0.055,0.794 a 2.48,2.48 0 0 1 -0.33,0.98 c -0.184,0.314 -0.46,0.592 -0.846,0.832 -0.385,0.24 -0.918,0.351 -1.598,0.351 -0.275,0 -0.551,-0.018 -0.808,-0.074 A 2.103,2.103 0 0 1 86.16,26.984 1.438,1.438 0 0 1 85.682,26.467 1.75,1.75 0 0 1 85.517,25.672 c 0,-0.333 0.055,-0.61 0.165,-0.813 0.11,-0.222 0.276,-0.388 0.46,-0.536 a 1.86,1.86 0 0 1 0.66,-0.333 c 0.258,-0.074 0.515,-0.148 0.772,-0.203 0.276,-0.056 0.551,-0.093 0.845,-0.13 0.276,-0.037 0.551,-0.074 0.809,-0.129 0.257,-0.055 0.495,-0.11 0.716,-0.185 a 1.6,1.6 0 0 0 0.551,-0.314 v 1.33 z m 10.03,-11.719 h -3.509 v 3.845 h -2.112 v 2.366 h 2.112 v 7.56 c 0,0.646 0.11,1.164 0.313,1.57 a 2.5,2.5 0 0 0 0.881,0.925 c 0.368,0.221 0.79,0.35 1.286,0.425 0.478,0.074 0.992,0.11 1.543,0.11 0.349,0 0.698,0 1.066,-0.018 0.367,-0.018 0.698,-0.055 0.992,-0.092 v -2.736 a 4.325,4.325 0 0 1 -0.515,0.074 c -0.183,0.019 -0.367,0.019 -0.569,0.019 -0.588,0 -0.992,-0.093 -1.176,-0.296 -0.202,-0.203 -0.294,-0.592 -0.294,-1.183 v -6.358 h 2.572 v -2.366 h -2.572 V 12.64 h -0.018 z M 115,23.694 a 3.243,3.243 0 0 0 -0.918,-1.016 5.009,5.009 0 0 0 -1.286,-0.666 17.601,17.601 0 0 0 -1.488,-0.425 c -0.496,-0.11 -0.974,-0.222 -1.451,-0.314 a 8.976,8.976 0 0 1 -1.268,-0.333 c -0.367,-0.13 -0.661,-0.277 -0.9,-0.48 a 0.966,0.966 0 0 1 -0.349,-0.777 c 0,-0.258 0.055,-0.48 0.202,-0.628 a 1.29,1.29 0 0 1 0.478,-0.351 c 0.183,-0.074 0.404,-0.13 0.624,-0.167 0.239,-0.018 0.441,-0.037 0.643,-0.037 0.625,0 1.176,0.111 1.635,0.352 0.459,0.24 0.717,0.702 0.772,1.367 h 3.325 c -0.074,-0.794 -0.276,-1.441 -0.607,-1.977 a 3.927,3.927 0 0 0 -1.267,-1.257 5.202,5.202 0 0 0 -1.745,-0.666 10.23,10.23 0 0 0 -2.003,-0.203 c -0.698,0 -1.359,0.056 -2.02,0.185 -0.662,0.13 -1.249,0.333 -1.782,0.647 a 3.45,3.45 0 0 0 -1.268,1.257 c -0.312,0.536 -0.477,1.201 -0.477,2.033 0,0.554 0.11,1.035 0.349,1.423 0.22,0.388 0.533,0.703 0.918,0.961 0.386,0.26 0.809,0.462 1.305,0.629 0.477,0.166 0.973,0.296 1.488,0.406 1.249,0.26 2.222,0.536 2.92,0.795 0.698,0.259 1.047,0.666 1.047,1.183 0,0.314 -0.073,0.573 -0.22,0.776 -0.147,0.204 -0.331,0.37 -0.551,0.5 a 2.554,2.554 0 0 1 -0.735,0.277 3.974,3.974 0 0 1 -0.771,0.092 c -0.35,0 -0.68,-0.037 -0.992,-0.13 a 2.206,2.206 0 0 1 -0.845,-0.387 2.125,2.125 0 0 1 -0.607,-0.666 2.03,2.03 0 0 1 -0.238,-0.98 h -3.325 c 0.036,0.87 0.22,1.572 0.587,2.145 a 4.253,4.253 0 0 0 1.36,1.386 c 0.551,0.351 1.175,0.591 1.892,0.74 a 10.52,10.52 0 0 0 2.168,0.221 c 0.716,0 1.432,-0.074 2.13,-0.203 0.698,-0.148 1.323,-0.388 1.856,-0.74 0.551,-0.35 0.973,-0.813 1.322,-1.367 0.331,-0.573 0.496,-1.276 0.496,-2.126 C 115.331,24.6 115.221,24.101 115,23.694 Z m 6.944,-12.088 -6.65,17.726 h 3.895 l 1.377,-3.937 h 6.577 l 1.322,3.937 h 4.023 l -6.576,-17.726 z m -0.367,10.868 2.296,-6.506 h 0.055 l 2.223,6.506 z m 23.035,-4.25 a 5.529,5.529 0 0 0 -1.8,-1.516 c -0.716,-0.389 -1.58,-0.573 -2.59,-0.573 -0.79,0 -1.507,0.147 -2.168,0.462 -0.661,0.314 -1.194,0.813 -1.635,1.515 h -0.055 v -1.645 h -3.325 v 17.32 h 3.509 v -6.082 h 0.055 a 4.05,4.05 0 0 0 1.635,1.424 c 0.661,0.314 1.396,0.48 2.186,0.48 0.937,0 1.763,-0.185 2.461,-0.554 a 5.187,5.187 0 0 0 1.746,-1.46 c 0.477,-0.61 0.808,-1.313 1.047,-2.108 0.22,-0.795 0.349,-1.626 0.349,-2.477 a 9.65,9.65 0 0 0 -0.349,-2.624 7.203,7.203 0 0 0 -1.066,-2.163 z m -2.259,6.228 a 3.536,3.536 0 0 1 -0.515,1.294 c -0.238,0.37 -0.551,0.684 -0.937,0.906 -0.385,0.24 -0.863,0.35 -1.432,0.35 -0.551,0 -1.029,-0.11 -1.433,-0.35 a 2.648,2.648 0 0 1 -0.955,-0.906 c -0.239,-0.37 -0.405,-0.813 -0.515,-1.294 a 6.98,6.98 0 0 1 -0.165,-1.515 c 0,-0.536 0.055,-1.036 0.147,-1.535 0.092,-0.499 0.275,-0.942 0.514,-1.312 0.239,-0.388 0.551,-0.684 0.937,-0.924 0.386,-0.24 0.863,-0.37 1.433,-0.37 0.551,0 1.029,0.13 1.414,0.37 0.386,0.24 0.698,0.554 0.956,0.942 0.238,0.389 0.422,0.832 0.532,1.331 0.111,0.5 0.166,0.998 0.166,1.516 0,0.499 -0.037,0.998 -0.147,1.497 z m 17.267,-4.03 c -0.239,-0.831 -0.588,-1.57 -1.065,-2.199 a 5.539,5.539 0 0 0 -1.8,-1.515 c -0.717,-0.389 -1.58,-0.573 -2.591,-0.573 -0.79,0 -1.506,0.147 -2.167,0.462 -0.662,0.314 -1.194,0.813 -1.635,1.515 h -0.055 v -1.645 h -3.325 v 17.32 h 3.508 v -6.082 h 0.056 a 4.047,4.047 0 0 0 1.634,1.424 5.06,5.06 0 0 0 2.186,0.48 c 0.937,0 1.746,-0.185 2.462,-0.554 a 5.174,5.174 0 0 0 1.745,-1.46 5.947,5.947 0 0 0 1.047,-2.108 8.578,8.578 0 0 0 0.349,-2.477 c 0,-0.887 -0.128,-1.755 -0.349,-2.587 z m -3.306,4.03 a 3.885,3.885 0 0 1 -0.496,1.294 c -0.239,0.37 -0.551,0.684 -0.937,0.906 -0.386,0.24 -0.864,0.35 -1.433,0.35 -0.551,0 -1.029,-0.11 -1.433,-0.35 a 2.656,2.656 0 0 1 -0.955,-0.906 c -0.239,-0.37 -0.404,-0.813 -0.514,-1.294 a 6.92,6.92 0 0 1 -0.166,-1.515 c 0,-0.536 0.055,-1.036 0.147,-1.535 a 3.63,3.63 0 0 1 0.515,-1.312 c 0.238,-0.388 0.551,-0.684 0.936,-0.924 0.386,-0.24 0.864,-0.37 1.452,-0.37 0.551,0 1.028,0.13 1.414,0.37 0.386,0.24 0.698,0.554 0.955,0.942 0.239,0.389 0.423,0.832 0.533,1.331 0.11,0.5 0.165,0.998 0.165,1.516 -0.036,0.499 -0.092,0.998 -0.183,1.497 z"
     fill="#fff"
     id="path826"
     style="fill:#252525;fill-opacity:1" />
  <g
     id="g1248"
     style="filter:url(#filter1320)"
     transform="translate(1.2,1.2)">
    <path
       fill="url(#pattern1_whatsapp_desktop_logo)"
       d="M 0,0 H 38.76 V 39 H 0 Z"
       id="path828" />
    <path
       d="M 1.267,37.614 3.839,28.206 A 18.217,18.217 0 0 1 1.433,19.13 C 1.414,9.094 9.515,0.943 19.472,0.943 c 4.831,0 9.368,1.885 12.785,5.323 3.417,3.438 5.29,8.003 5.29,12.864 0,10.018 -8.1,18.17 -18.057,18.17 a 17.82,17.82 0 0 1 -8.633,-2.218 z m 10.013,-5.804 0.551,0.333 a 14.955,14.955 0 0 0 7.642,2.107 c 8.266,0 15.008,-6.784 15.008,-15.101 0,-4.03 -1.561,-7.837 -4.39,-10.684 C 27.26,5.62 23.476,4.03 19.471,4.03 c -8.285,0 -15.027,6.784 -15.027,15.101 0,2.847 0.79,5.638 2.297,8.04 l 0.349,0.574 -1.525,5.582 5.713,-1.516 z"
       fill="#ffffff"
       id="path830" />
    <path
       d="m 1.892,36.985 2.48,-9.093 A 17.608,17.608 0 0 1 2.039,19.13 c 0,-9.666 7.826,-17.54 17.433,-17.54 4.666,0 9.038,1.83 12.344,5.138 a 17.506,17.506 0 0 1 5.107,12.402 c 0,9.667 -7.825,17.541 -17.433,17.541 -2.92,0 -5.786,-0.74 -8.34,-2.144 z"
       fill="url(#paint0_linear_whatsapp_desktop_logo)"
       id="path832"
       style="fill:url(#paint0_linear_whatsapp_desktop_logo)" />
    <path
       fill="url(#pattern2_whatsapp_desktop_logo)"
       d="M 0,0 H 38.76 V 39 H 0 Z"
       id="path834" />
    <path
       d="M 1.267,37.614 3.839,28.206 A 18.217,18.217 0 0 1 1.433,19.13 C 1.414,9.094 9.515,0.943 19.472,0.943 c 4.831,0 9.368,1.885 12.785,5.323 3.417,3.438 5.29,8.003 5.29,12.864 0,10.018 -8.1,18.17 -18.057,18.17 a 17.82,17.82 0 0 1 -8.633,-2.218 z m 10.013,-5.804 0.551,0.333 a 14.955,14.955 0 0 0 7.642,2.107 c 8.266,0 15.008,-6.784 15.008,-15.101 0,-4.03 -1.561,-7.837 -4.39,-10.684 C 27.26,5.62 23.476,4.03 19.471,4.03 c -8.285,0 -15.027,6.784 -15.027,15.101 0,2.847 0.79,5.638 2.297,8.04 l 0.349,0.574 -1.525,5.582 5.713,-1.516 z"
       fill="url(#paint1_linear_whatsapp_desktop_logo)"
       id="path836"
       style="fill:url(#paint1_linear_whatsapp_desktop_logo)" />
    <path
       fill="url(#pattern3_whatsapp_desktop_logo)"
       d="M 8.634,9.242 H 30.31 V 29.759 H 8.634 Z"
       id="path838" />
    <path
       fill-rule="evenodd"
       clip-rule="evenodd"
       d="m 14.971,11.515 c -0.33,-0.758 -0.698,-0.776 -1.01,-0.776 -0.276,-0.019 -0.57,-0.019 -0.882,-0.019 -0.294,0 -0.79,0.111 -1.212,0.573 -0.423,0.462 -1.58,1.553 -1.58,3.79 0,2.236 1.617,4.399 1.837,4.694 0.22,0.296 3.123,5.028 7.715,6.858 3.821,1.515 4.593,1.22 5.42,1.127 0.826,-0.092 2.663,-1.09 3.049,-2.163 0.367,-1.053 0.367,-1.977 0.257,-2.162 -0.11,-0.185 -0.423,-0.296 -0.864,-0.536 -0.459,-0.222 -2.663,-1.33 -3.086,-1.479 -0.422,-0.148 -0.716,-0.222 -1.01,0.222 -0.294,0.462 -1.157,1.479 -1.433,1.774 -0.257,0.296 -0.532,0.333 -0.973,0.111 -0.46,-0.221 -1.91,-0.702 -3.638,-2.255 -1.34,-1.201 -2.24,-2.698 -2.516,-3.142 -0.257,-0.462 -0.037,-0.702 0.202,-0.924 0.202,-0.203 0.46,-0.536 0.68,-0.795 0.22,-0.259 0.293,-0.462 0.459,-0.758 0.147,-0.295 0.073,-0.573 -0.037,-0.794 -0.11,-0.204 -0.974,-2.44 -1.378,-3.346 z"
       fill="#ffffff"
       id="path840" />
  </g>
  <defs
     id="defs864">
    <pattern
       inkscape:collect="always"
       xlink:href="#pattern0_whatsapp_desktop_logo"
       id="pattern1340"
       patternTransform="translate(1.2,1.2)" />
    <pattern
       id="pattern0_whatsapp_desktop_logo"
       patternContentUnits="objectBoundingBox"
       width="1"
       height="1">
      <use
         xlink:href="#image0"
         id="use842" />
    </pattern>
    <pattern
       id="pattern1_whatsapp_desktop_logo"
       patternContentUnits="objectBoundingBox"
       width="1"
       height="1">
      <use
         xlink:href="#image1"
         id="use845" />
    </pattern>
    <pattern
       id="pattern2_whatsapp_desktop_logo"
       patternContentUnits="objectBoundingBox"
       width="1"
       height="1">
      <use
         xlink:href="#image1"
         id="use848" />
    </pattern>
    <pattern
       id="pattern3_whatsapp_desktop_logo"
       patternContentUnits="objectBoundingBox"
       width="1"
       height="1">
      <use
         xlink:href="#image2"
         id="use851" />
    </pattern>
    <linearGradient
       id="paint0_linear_whatsapp_desktop_logo"
       x1="19.403999"
       y1="36.983002"
       x2="19.403999"
       y2="1.5829999"
       gradientUnits="userSpaceOnUse">
      <stop
         stop-color="#20B038"
         id="stop854" />
      <stop
         offset="1"
         stop-color="#60D66A"
         id="stop856" />
    </linearGradient>
    <linearGradient
       id="paint1_linear_whatsapp_desktop_logo"
       x1="19.403999"
       y1="37.618"
       x2="19.403999"
       y2="0.94800001"
       gradientUnits="userSpaceOnUse">
      <stop
         stop-color="#F9F9F9"
         id="stop859" />
      <stop
         offset="1"
         stop-color="#fff"
         id="stop861" />
    </linearGradient>
    <filter
       style="color-interpolation-filters:sRGB"
       inkscape:label="Drop Shadow"
       id="filter1320"
       x="-0.030959752"
       y="-0.030769231"
       width="1.0619195"
       height="1.074359">
      <feFlood
         flood-opacity="0.498039"
         flood-color="rgb(0,0,0)"
         result="flood"
         id="feFlood1310" />
      <feComposite
         in="flood"
         in2="SourceGraphic"
         operator="in"
         result="composite1"
         id="feComposite1312" />
      <feGaussianBlur
         in="composite1"
         stdDeviation="0.5"
         result="blur"
         id="feGaussianBlur1314" />
      <feOffset
         dx="0"
         dy="0.5"
         result="offset"
         id="feOffset1316" />
      <feComposite
         in="SourceGraphic"
         in2="offset"
         operator="over"
         result="composite2"
         id="feComposite1318" />
    </filter>
  </defs>
</svg>
